<svg xmlns="http://www.w3.org/2000/svg" version="1.1" xmlns:xlink="http://www.w3.org/1999/xlink" xmlns:svgjs="http://svgjs.dev/svgjs" width="1000" height="386" viewBox="0 0 1000 386"><g transform="matrix(1,0,0,1,0.7945006312952501,0.21955113679175042)"><svg viewBox="0 0 145 56" data-background-color="#282634" preserveAspectRatio="xMidYMid meet" height="386" width="1000" xmlns="http://www.w3.org/2000/svg" xmlns:xlink="http://www.w3.org/1999/xlink"><g id="tight-bounds" transform="matrix(1,0,0,1,-0.11520259153780898,-0.031851802891907255)"><svg viewBox="0 0 145.23040513539195 56.06369999999999" height="56.06369999999999" width="145.23040513539195"><g><svg viewBox="0 0 145.23040513539195 56.06369999999999" height="56.06369999999999" width="145.23040513539195"><g><svg viewBox="0 0 145.23040513539195 56.06369999999999" height="56.06369999999999" width="145.23040513539195"><g id="textblocktransform"><svg viewBox="0 0 145.23040513539195 56.06369999999999" height="56.06369999999999" width="145.23040513539195" id="textblock"><g><svg viewBox="0 0 145.23040513539195 56.06369999999999" height="56.06369999999999" width="145.23040513539195"><g><svg><g></g><g></g></svg></g><g><svg><g></g><g><svg></svg></g></svg></g><g id="text-0"><svg viewBox="0 0 145.23040513539195 56.06369999999999" height="56.06369999999999" width="145.23040513539195"><g transform="matrix(1,0,0,1,0,10.706849999999996)"><svg width="25.3" viewBox="2.299999952316284 -34.650001525878906 25.30000114440918 34.650001525878906" height="34.65" data-palette-color="#ff4057"><path d="M2.3-34.65L10.15-34.65 10.15 0 2.3 0 2.3-34.65ZM19.1-34.65L26.85-34.65 18.25-19.05 27.6 0 19.05 0 10.4-18.5 19.1-34.65Z" opacity="1" transform="matrix(1,0,0,1,0,0)" fill="#ff4057" class="undefined-p-0"></path></svg></g><g><svg xmlns="http://www.w3.org/2000/svg" xmlns:xlink="http://www.w3.org/1999/xlink" version="1.1" x="38.5363" y="0" viewBox="0 9.78600025177002 100.0003433227539 80.42699432373047" enable-background="new 0 0 100 100" xml:space="preserve" width="69.70780513539194" height="56.06369999999999" class="icon-s-0" data-fill-palette-color="accent" id="s-0"><path d="M49.942 52.994c13.552-0.488 27.103-0.977 40.653-1.465-2.527-4.177-3.159-7.831-7.989-8.461-7.229-0.94-14.458-1.883-21.688-2.826-14.023-1.827-28.05-3.654-42.075-5.48C20.101 36.792 39.724 53.361 49.942 52.994z" fill="#dcdcdc" data-fill-palette-color="accent"></path><path d="M0 9.786c4.391 7.257 26.615 23.072 32.953 23.886 17.33 2.231 34.657 4.46 51.986 6.688-3.393-5.607-4.18-9.35-10.312-10.959-8.904-2.341-17.812-4.683-26.717-7.023C31.94 18.182 15.97 13.984 0 9.786z" fill="#dcdcdc" data-fill-palette-color="accent"></path><path d="M63.108 66.207c10.413-2.219 20.826-4.439 31.241-6.66-2.028-3.346-2.034-5.359-5.827-5.189-6.158 0.273-12.314 0.549-18.471 0.822-11.343 0.506-22.686 1.014-34.028 1.518C37.298 58.064 54.94 67.947 63.108 66.207z" fill="#dcdcdc" data-fill-palette-color="accent"></path><path d="M87.682 90.213c5.725-3.719 7.262-7.721 10.519-13.807 3.651-6.824 1.257-7.844-2.821-14.596-0.417-0.688-5.842 0.232-6.453 0.904-0.745 0.818-0.248 5.455-0.294 6.496C88.315 76.211 87.998 83.213 87.682 90.213z" fill="#dcdcdc" data-fill-palette-color="accent"></path><path d="M86.35 63.447c-3.795 0.809-8.604 0.191-9.572 4.229-1.373 5.736-2.746 11.475-4.12 17.211C81.904 82.678 86.028 71.582 86.35 63.447z" fill="#dcdcdc" data-fill-palette-color="accent"></path><path d="M74.666 66.121c-9.148 1.953-8.956 4.611-12.879 13.18C68.007 78.711 73.811 71.941 74.666 66.121z" fill="#dcdcdc" data-fill-palette-color="accent"></path></svg></g><g transform="matrix(1,0,0,1,121.48040513539193,10.706849999999996)"><svg width="23.75" viewBox="2.299999952316284 -34.650001525878906 23.75 34.650001525878906" height="34.65" data-palette-color="#ff4057"><path d="M11.05-34.65Q15.55-34.65 18.78-33.33 22-32 24.03-28.23 26.05-24.45 26.05-17.5L26.05-17.5Q26.05-7.75 22.13-3.88 18.2 0 11.6 0L11.6 0 2.3 0 2.3-34.65 11.05-34.65ZM12.05-29L10.15-29 10.15-5.7 12.05-5.7Q14.05-5.7 15.33-6.73 16.6-7.75 17.3-10.33 18-12.9 18-17.5L18-17.5Q18-22.15 17.28-24.65 16.55-27.15 15.28-28.08 14-29 12.05-29L12.05-29Z" opacity="1" transform="matrix(1,0,0,1,0,0)" fill="#ff4057" class="undefined-p-1"></path></svg></g></svg></g></svg></g></svg></g></svg></g></svg></g><defs></defs></svg><rect width="145.23040513539195" height="56.06369999999999" fill="none" stroke="none" visibility="hidden"></rect></g></svg></g></svg>